<svg width="270" height="227" viewBox="0 0 270 227" fill="none" xmlns="http://www.w3.org/2000/svg">
<g opacity="0.1">
<path d="M48.8145 161.913C10.9101 185.043 36.9694 213.956 54.7371 225.522H214.646C238.336 225.522 262.027 213.956 267.949 179.261C272.687 151.504 246.233 140.71 232.414 138.783C232.414 109.87 214.646 92.522 179.111 86.7394C150.682 82.1134 131.73 104.087 125.808 115.652C119.885 107.942 95.0103 91.3655 66.582 109.87C38.1537 128.374 44.8661 154.203 48.8145 161.913Z" stroke="url(#paint0_linear_115_322)" stroke-width="2"/>
<path d="M122.51 101.5C81.5098 80.5001 48.8174 109.869 42.8945 127.217C13.2817 92.5217 42.8944 34.6957 90.2751 34.6957C125.811 34.6957 143.578 61.6812 149.501 75.1739L122.51 101.5Z" stroke="#434869" stroke-width="2"/>
<rect x="85.5098" y="1" width="9.84513" height="21.1304" stroke="#434869" stroke-width="2"/>
<rect x="1.39594" y="0.307799" width="9.76473" height="21.2939" transform="matrix(0.848566 -0.529089 0.547375 0.836888 37.4912 17.2847)" stroke="#434869" stroke-width="2"/>
<rect x="1.33615" y="-0.490129" width="9.58704" height="21.6475" transform="matrix(0.426121 -0.904666 0.910033 0.414537 8.57415 58.1486)" stroke="#434869" stroke-width="2"/>
<rect x="0.999991" y="-0.995683" width="9.56751" height="21.6857" transform="matrix(-4.37114e-08 -1 0.999991 0.0043168 1.99566 105.069)" stroke="#434869" stroke-width="2"/>
<rect x="0.316914" y="-1.36259" width="9.64405" height="21.5352" transform="matrix(-0.537617 -0.843189 0.854532 -0.519399 14.4163 143.242)" stroke="#434869" stroke-width="2"/>
<rect x="0.499767" y="1.30942" width="9.7989" height="21.2247" transform="matrix(0.916372 0.400328 -0.416605 0.909088 136.069 11.4842)" stroke="#434869" stroke-width="2"/>
<rect x="-0.377489" y="1.34562" width="9.67715" height="21.4695" transform="matrix(0.5 0.866025 -0.877489 0.479597 173.809 46.0272)" stroke="#434869" stroke-width="2"/>
</g>
<defs>
<linearGradient id="paint0_linear_115_322" x1="148.928" y1="86.1092" x2="148.928" y2="165" gradientUnits="userSpaceOnUse">
<stop stop-color="#434869"/>
<stop offset="1" stop-color="#12121A"/>
</linearGradient>
</defs>
</svg>
