<svg width="289" height="243" viewBox="0 0 289 243" fill="none" xmlns="http://www.w3.org/2000/svg">
<g opacity="0.06">
<path d="M52.1648 173.026C11.6589 197.744 39.5067 228.641 58.4939 241H229.378C254.694 241 280.011 228.641 286.34 191.564C291.403 161.903 263.133 150.368 248.365 148.308C248.365 117.411 229.378 98.8721 191.404 92.6926C161.024 87.749 140.771 111.231 134.442 123.59C128.113 115.351 101.531 97.6362 71.1518 117.411C40.7723 137.185 47.9454 164.786 52.1648 173.026Z" stroke="#787EA0" stroke-width="4"/>
<path d="M131.214 109.5C82.2144 83.4999 52.168 117.41 45.8387 135.949C14.1934 98.8719 45.8385 37.0771 96.4711 37.0771C134.446 37.0771 156.385 68.5812 162.714 82.9999L131.214 109.5Z" fill="#787EA0"/>
<rect x="90.3101" width="12.6581" height="24.7179" fill="#787EA0"/>
<rect width="12.5722" height="24.8927" transform="matrix(0.848566 -0.529089 0.547375 0.836888 40.0186 17.628)" fill="#787EA0"/>
<rect width="12.3823" height="25.2705" transform="matrix(0.476233 -0.879319 0.885327 0.464968 6.21436 57.888)" fill="#787EA0"/>
<rect width="12.3614" height="25.3114" transform="matrix(-4.37114e-08 -1 0.999991 0.0043168 0 109.361)" fill="#787EA0"/>
<rect width="12.4432" height="25.1505" transform="matrix(-0.537617 -0.843189 0.854532 -0.519399 13.6406 155)" fill="#787EA0"/>
<rect width="12.6087" height="24.8187" transform="matrix(0.860411 0.509601 -0.524862 0.851187 143.25 11.0296)" fill="#787EA0"/>
<rect width="12.4786" height="25.0803" transform="matrix(0.5 0.866025 -0.877489 0.479597 184.678 48.0886)" fill="#787EA0"/>
</g>
</svg>
