<svg width="26" height="21" viewBox="0 0 26 21" fill="none" xmlns="http://www.w3.org/2000/svg">
<path d="M3.5 12.875H18.6686C19.3633 12.8955 20.0239 13.1794 20.5154 13.6688C21.0068 14.1582 21.292 14.8161 21.3125 15.5079V20" stroke="#515670" stroke-width="1.5" stroke-linecap="round" stroke-linejoin="round"/>
<path d="M11.2188 9.3125C13.5142 9.3125 15.375 7.45168 15.375 5.15625C15.375 2.86082 13.5142 1 11.2188 1C8.92332 1 7.0625 2.86082 7.0625 5.15625C7.0625 7.45168 8.92332 9.3125 11.2188 9.3125Z" stroke="#515670" stroke-width="1.5" stroke-linecap="round" stroke-linejoin="round"/>
<path d="M1.125 20V15.5079C1.14511 14.8183 1.42483 14.1624 1.9073 13.6733C2.38976 13.1843 3.03878 12.8988 3.72246 12.875H18.7016C19.3876 12.8955 20.04 13.1794 20.5253 13.6688C21.0106 14.1582 21.2922 14.8161 21.3125 15.5079V20" stroke="#515670" stroke-width="1.5" stroke-linecap="round" stroke-linejoin="round"/>
<path d="M17.75 1C18.6948 1 19.601 1.37533 20.2691 2.04343C20.9372 2.71153 21.3125 3.61767 21.3125 4.5625C21.3125 5.50733 20.9372 6.41347 20.2691 7.08157C19.601 7.74967 18.6948 8.125 17.75 8.125" stroke="#515670" stroke-width="1.5" stroke-linecap="round" stroke-linejoin="round"/>
<path d="M21.3125 10.5H22.1437C22.8669 10.5037 23.5594 10.7812 24.0707 11.2721C24.5821 11.763 24.8711 12.4278 24.875 13.122V17.625" stroke="#515670" stroke-width="1.5" stroke-linecap="round" stroke-linejoin="round"/>
</svg>
