<svg width="26" height="26" viewBox="0 0 26 26" fill="none" xmlns="http://www.w3.org/2000/svg">
<path d="M2.84094 7.50355L21.8843 1.11742C22.3017 0.98066 22.7486 0.962992 23.1754 1.06637C23.6022 1.16974 23.9924 1.39013 24.3028 1.70318C24.6132 2.01623 24.8317 2.40974 24.9342 2.84021C25.0367 3.27069 25.0192 3.72137 24.8836 4.14243L18.5517 23.3488C18.3951 23.8292 18.0922 24.2474 17.6862 24.5439C17.2801 24.8404 16.7916 25 16.2903 25C15.789 25 15.3005 24.8404 14.8944 24.5439C14.4883 24.2474 14.1854 23.8292 14.0289 23.3488L11.6485 16.1464C11.5322 15.7876 11.3337 15.4614 11.069 15.1944C10.8043 14.9274 10.4808 14.7272 10.125 14.6099L2.98376 12.2091C2.44141 12.1167 1.94754 11.8377 1.58609 11.4195C1.22465 11.0013 1.01795 10.4698 1.00112 9.91535C0.984285 9.36086 1.15837 8.8176 1.49378 8.37792C1.82918 7.93824 2.30521 7.62928 2.84094 7.50355Z" stroke="#515670" stroke-width="1.5" stroke-miterlimit="10"/>
</svg>
