<svg width="26" height="26" viewBox="0 0 26 26" fill="none" xmlns="http://www.w3.org/2000/svg">
<path d="M15.0721 2.31941L17.0016 6.41912C17.1654 6.76428 17.4072 7.06278 17.7063 7.2889C18.0054 7.51502 18.3527 7.66198 18.7185 7.7171L23.0485 8.36609C23.4696 8.42979 23.8652 8.61506 24.1905 8.90092C24.5157 9.18677 24.7577 9.56179 24.8889 9.98352C25.0201 10.4052 25.0354 10.8568 24.933 11.2871C24.8306 11.7174 24.6147 12.1093 24.3095 12.4183L21.1797 15.5841C20.9068 15.8574 20.7039 16.1977 20.5898 16.5738C20.4757 16.9498 20.4539 17.3497 20.5264 17.7369L21.2557 22.2323C21.3259 22.6674 21.2783 23.1144 21.1182 23.5229C20.9582 23.9314 20.692 24.2854 20.3497 24.5451C20.0073 24.8048 19.6022 24.96 19.1799 24.9933C18.7576 25.0265 18.3347 24.9365 17.9588 24.7333L14.0846 22.5805C13.7563 22.4016 13.3914 22.3082 13.021 22.3082C12.6506 22.3082 12.2857 22.4016 11.9575 22.5805L8.08327 24.7016C7.70733 24.9048 7.28448 24.9948 6.86216 24.9616C6.43985 24.9284 6.03478 24.7732 5.6924 24.5134C5.35002 24.2537 5.08389 23.8997 4.92385 23.4912C4.76381 23.0827 4.7162 22.6358 4.78636 22.2006L5.51563 17.7369C5.58028 17.357 5.55453 16.9665 5.44063 16.5995C5.32673 16.2324 5.12816 15.9001 4.86232 15.6316L1.73254 12.4658C1.4137 12.1589 1.18561 11.7636 1.0751 11.3263C0.964587 10.8889 0.97625 10.4278 1.10872 9.99715C1.24118 9.5665 1.48894 9.18421 1.82285 8.89526C2.15676 8.60631 2.56292 8.42272 2.99357 8.36609L7.32361 7.7171C7.68934 7.66198 8.03672 7.51502 8.33581 7.2889C8.6349 7.06278 8.87672 6.76428 9.04044 6.41912L10.97 2.31941C11.1607 1.92287 11.4535 1.58944 11.8158 1.35643C12.178 1.12341 12.5953 1 13.021 1C13.4468 1 13.8641 1.12341 14.2263 1.35643C14.5885 1.58944 14.8814 1.92287 15.0721 2.31941Z" stroke="url(#paint0_radial_340_2)" stroke-width="1.5" stroke-miterlimit="10"/>
<defs>
<radialGradient id="paint0_radial_340_2" cx="0" cy="0" r="1" gradientUnits="userSpaceOnUse" gradientTransform="translate(5.83333 6.4375) rotate(78.0239) scale(25.3007 29.7264)">
<stop stop-color="#6DDABA"/>
<stop offset="1" stop-color="#39997D"/>
</radialGradient>
</defs>
</svg>
