<svg width="16" height="16" viewBox="0 0 16 16" fill="none" xmlns="http://www.w3.org/2000/svg">
<path d="M9.38141 0.879606L10.6678 3.61275C10.7769 3.84285 10.9381 4.04186 11.1375 4.1926C11.3369 4.34335 11.5685 4.44132 11.8123 4.47807L14.699 4.91073C14.9797 4.9532 15.2435 5.07671 15.4603 5.26728C15.6771 5.45785 15.8384 5.70786 15.9259 5.98901C16.0134 6.27016 16.0236 6.57122 15.9554 6.85809C15.8871 7.14497 15.7431 7.4062 15.5397 7.61221L13.4532 9.72274C13.2712 9.90494 13.1359 10.1318 13.0599 10.3825C12.9838 10.6332 12.9692 10.8998 13.0176 11.1579L13.5038 14.1549C13.5506 14.445 13.5188 14.7429 13.4122 15.0153C13.3055 15.2876 13.128 15.5236 12.8998 15.6967C12.6715 15.8699 12.4015 15.9733 12.1199 15.9955C11.8384 16.0177 11.5565 15.9576 11.3059 15.8222L8.72304 14.387C8.50423 14.2678 8.26096 14.2055 8.01402 14.2055C7.76708 14.2055 7.52382 14.2678 7.30501 14.387L4.72218 15.8011C4.47155 15.9365 4.18965 15.9966 3.90811 15.9744C3.62657 15.9522 3.35652 15.8488 3.12827 15.6756C2.90002 15.5025 2.72259 15.2665 2.6159 14.9941C2.5092 14.7218 2.47746 14.4239 2.52424 14.1338L3.01042 11.1579C3.05352 10.9047 3.03635 10.6443 2.96042 10.3996C2.88449 10.155 2.75211 9.9334 2.57488 9.7544L0.488359 7.64387C0.275801 7.43929 0.123741 7.17572 0.0500662 6.88417C-0.0236084 6.59262 -0.0158333 6.28521 0.0724773 5.9981C0.160788 5.711 0.325961 5.45614 0.548565 5.26351C0.77117 5.07088 1.04195 4.94848 1.32905 4.91073L4.21574 4.47807C4.45956 4.44132 4.69115 4.34335 4.89054 4.1926C5.08993 4.04186 5.25115 3.84285 5.36029 3.61275L6.64664 0.879606C6.77379 0.615249 6.96902 0.392963 7.21051 0.237619C7.452 0.0822747 7.73021 0 8.01402 0C8.29784 0 8.57605 0.0822747 8.81754 0.237619C9.05902 0.392963 9.25426 0.615249 9.38141 0.879606Z" fill="url(#paint0_radial_535_4735)"/>
<defs>
<radialGradient id="paint0_radial_535_4735" cx="0" cy="0" r="1" gradientUnits="userSpaceOnUse" gradientTransform="translate(4.2963 -0.499999) rotate(78.0239) scale(22.4895 26.4234)">
<stop stop-color="#6DDABA"/>
<stop offset="1" stop-color="#39997D"/>
</radialGradient>
</defs>
</svg>
