<svg width="94" height="90" viewBox="0 0 94 90" fill="none" xmlns="http://www.w3.org/2000/svg">
<path d="M36.2478 18.9789C31.8048 21.6901 34.8594 25.0792 36.942 26.4348H55.686C58.4629 26.4348 61.2398 25.0792 61.934 21.0123C62.4894 17.7588 59.3886 16.4935 57.7687 16.2676C57.7687 12.8785 55.686 10.8451 51.5207 10.1673C48.1884 9.62501 45.9669 12.2007 45.2727 13.5563C44.5785 12.6526 41.6627 10.7095 38.3305 12.8785C34.9982 15.0475 35.785 18.0751 36.2478 18.9789Z" fill="url(#paint0_radial_535_2518)"/>
<path d="M44.5788 11.5229C39.5804 9.35385 36.2481 12.8785 35.5538 14.9119C32.0827 10.8451 35.5538 4.06689 41.1076 4.06689C45.273 4.06689 47.3556 7.23003 48.0498 8.8116L44.5788 11.5229Z" fill="#1B1F24"/>
<rect x="41.1074" width="1.38844" height="2.71126" fill="#1B1F24"/>
<rect width="1.37902" height="2.73043" transform="matrix(0.848566 -0.529089 0.547375 0.836888 34.9155 1.93347)" fill="#1B1F24"/>
<rect width="1.35819" height="2.77188" transform="matrix(0.284009 -0.958822 0.962369 0.271745 31.4126 6.94263)" fill="#1B1F24"/>
<rect width="1.3559" height="2.77636" transform="matrix(-0.0927827 -0.995686 0.996078 -0.0884836 30.1255 12.4409)" fill="#1B1F24"/>
<rect width="1.36487" height="2.75872" transform="matrix(-0.537617 -0.843189 0.854532 -0.519399 32.0225 17.0017)" fill="#1B1F24"/>
<rect width="1.38303" height="2.72232" transform="matrix(0.916372 0.400328 -0.416605 0.909088 46.4072 1.35559)" fill="#1B1F24"/>
<rect width="1.36875" height="2.75102" transform="matrix(0.639205 0.769037 -0.783784 0.621033 50.2061 4.06689)" fill="#1B1F24"/>
<path d="M8.84438 63V59.8H15.2764C16.407 59.8 17.2817 59.448 17.9004 58.744C18.519 58.04 18.8284 57.2293 18.8284 56.312C18.8284 55.6933 18.6897 55.1173 18.4124 54.584C18.135 54.0507 17.7297 53.624 17.1964 53.304C16.663 52.984 16.023 52.824 15.2764 52.824H8.84438V49.624H14.7324C15.6924 49.624 16.4604 49.3787 17.0364 48.888C17.6124 48.3973 17.9004 47.672 17.9004 46.712C17.9004 45.752 17.6124 45.0267 17.0364 44.536C16.4604 44.0453 15.6924 43.8 14.7324 43.8H8.84438V40.6H14.8284C16.343 40.6 17.6017 40.8773 18.6044 41.432C19.607 41.9867 20.3537 42.7013 20.8444 43.576C21.335 44.4507 21.5804 45.3893 21.5804 46.392C21.5804 47.5653 21.2497 48.6 20.5884 49.496C19.9484 50.392 18.999 51.1173 17.7404 51.672L18.0284 50.52C19.4364 51.096 20.535 51.9067 21.3244 52.952C22.1137 53.9973 22.5084 55.224 22.5084 56.632C22.5084 57.784 22.2204 58.84 21.6444 59.8C21.0897 60.76 20.2577 61.5387 19.1484 62.136C18.0604 62.712 16.7164 63 15.1164 63H8.84438ZM6.31638 63V40.6H9.99638V63H6.31638ZM31.9186 63.32C30.3826 63.32 28.996 62.9787 27.7586 62.296C26.5426 61.592 25.572 60.632 24.8466 59.416C24.1426 58.2 23.7906 56.8347 23.7906 55.32C23.7906 53.8053 24.1426 52.4507 24.8466 51.256C25.5506 50.04 26.5 49.08 27.6946 48.376C28.9106 47.672 30.2546 47.32 31.7266 47.32C33.156 47.32 34.4146 47.6507 35.5026 48.312C36.612 48.9733 37.476 49.88 38.0946 51.032C38.7346 52.184 39.0546 53.496 39.0546 54.968C39.0546 55.224 39.0333 55.4907 38.9906 55.768C38.9693 56.024 38.9266 56.312 38.8626 56.632H26.2546V53.752H37.0386L35.7266 54.904C35.684 53.9653 35.5026 53.176 35.1826 52.536C34.8626 51.896 34.404 51.4053 33.8066 51.064C33.2306 50.7227 32.516 50.552 31.6626 50.552C30.7666 50.552 29.988 50.744 29.3266 51.128C28.6653 51.512 28.1533 52.056 27.7906 52.76C27.428 53.4427 27.2466 54.264 27.2466 55.224C27.2466 56.184 27.4386 57.0267 27.8226 57.752C28.2066 58.4773 28.7506 59.0427 29.4546 59.448C30.1586 59.832 30.9693 60.024 31.8866 60.024C32.676 60.024 33.4013 59.8853 34.0626 59.608C34.7453 59.3307 35.3213 58.9253 35.7906 58.392L38.0306 60.664C37.284 61.5387 36.3773 62.2 35.3106 62.648C34.244 63.096 33.1133 63.32 31.9186 63.32ZM42.8461 63V41.24H46.3661V63H42.8461ZM39.1661 50.84V47.64H50.0461V50.84H39.1661Z" fill="url(#paint1_radial_535_2518)"/>
<path d="M53.9799 63V41.24H57.4999V63H53.9799ZM50.2999 50.84V47.64H61.1799V50.84H50.2999ZM69.4761 63.32C67.9401 63.32 66.5535 62.9787 65.3161 62.296C64.1001 61.592 63.1295 60.632 62.4041 59.416C61.7001 58.2 61.3481 56.8347 61.3481 55.32C61.3481 53.8053 61.7001 52.4507 62.4041 51.256C63.1081 50.04 64.0575 49.08 65.2521 48.376C66.4681 47.672 67.8121 47.32 69.2841 47.32C70.7135 47.32 71.9721 47.6507 73.0601 48.312C74.1695 48.9733 75.0335 49.88 75.6521 51.032C76.2921 52.184 76.6121 53.496 76.6121 54.968C76.6121 55.224 76.5908 55.4907 76.5481 55.768C76.5268 56.024 76.4841 56.312 76.4201 56.632H63.8121V53.752H74.5961L73.2841 54.904C73.2415 53.9653 73.0601 53.176 72.7401 52.536C72.4201 51.896 71.9615 51.4053 71.3641 51.064C70.7881 50.7227 70.0735 50.552 69.2201 50.552C68.3241 50.552 67.5455 50.744 66.8841 51.128C66.2228 51.512 65.7108 52.056 65.3481 52.76C64.9855 53.4427 64.8041 54.264 64.8041 55.224C64.8041 56.184 64.9961 57.0267 65.3801 57.752C65.7641 58.4773 66.3081 59.0427 67.0121 59.448C67.7161 59.832 68.5268 60.024 69.4441 60.024C70.2335 60.024 70.9588 59.8853 71.6201 59.608C72.3028 59.3307 72.8788 58.9253 73.3481 58.392L75.5881 60.664C74.8415 61.5387 73.9348 62.2 72.8681 62.648C71.8015 63.096 70.6708 63.32 69.4761 63.32ZM78.4739 63V47.64H81.9939V63H78.4739ZM81.9939 54.456L80.7779 53.848C80.7779 51.9067 81.2045 50.3387 82.0579 49.144C82.9325 47.928 84.2445 47.32 85.9939 47.32C86.7619 47.32 87.4552 47.4587 88.0739 47.736C88.6925 48.0133 89.2685 48.4613 89.8019 49.08L87.4979 51.448C87.2205 51.1493 86.9112 50.936 86.5699 50.808C86.2285 50.68 85.8339 50.616 85.3859 50.616C84.4045 50.616 83.5939 50.9253 82.9539 51.544C82.3139 52.1627 81.9939 53.1333 81.9939 54.456ZM6.15228 87L0.632282 70.2H3.34428L7.49628 83.136H6.77628L10.8323 70.2H12.7523L16.8083 83.136H16.0883L20.2403 70.2H22.9523L17.4323 87H15.5123L11.4323 74.088H12.1523L8.07228 87H6.15228ZM27.9949 87.24C26.8429 87.24 25.8029 86.984 24.8749 86.472C23.9629 85.944 23.2349 85.224 22.6909 84.312C22.1629 83.4 21.8989 82.376 21.8989 81.24C21.8989 80.104 22.1629 79.088 22.6909 78.192C23.2189 77.28 23.9309 76.56 24.8269 76.032C25.7389 75.504 26.7469 75.24 27.8509 75.24C28.9229 75.24 29.8669 75.488 30.6829 75.984C31.5149 76.48 32.1629 77.16 32.6269 78.024C33.1069 78.888 33.3469 79.872 33.3469 80.976C33.3469 81.168 33.3309 81.368 33.2989 81.576C33.2829 81.768 33.2509 81.984 33.2029 82.224H23.7469V80.064H31.8349L30.8509 80.928C30.8189 80.224 30.6829 79.632 30.4429 79.152C30.2029 78.672 29.8589 78.304 29.4109 78.048C28.9789 77.792 28.4429 77.664 27.8029 77.664C27.1309 77.664 26.5469 77.808 26.0509 78.096C25.5549 78.384 25.1709 78.792 24.8989 79.32C24.6269 79.832 24.4909 80.448 24.4909 81.168C24.4909 81.888 24.6349 82.52 24.9229 83.064C25.2109 83.608 25.6189 84.032 26.1469 84.336C26.6749 84.624 27.2829 84.768 27.9709 84.768C28.5629 84.768 29.1069 84.664 29.6029 84.456C30.1149 84.248 30.5469 83.944 30.8989 83.544L32.5789 85.248C32.0189 85.904 31.3389 86.4 30.5389 86.736C29.7389 87.072 28.8909 87.24 27.9949 87.24ZM39.5672 87.24C38.5272 87.24 37.5832 86.976 36.7352 86.448C35.9032 85.92 35.2392 85.208 34.7432 84.312C34.2632 83.4 34.0232 82.384 34.0232 81.264C34.0232 80.128 34.2632 79.112 34.7432 78.216C35.2392 77.304 35.9032 76.584 36.7352 76.056C37.5832 75.512 38.5272 75.24 39.5672 75.24C40.4472 75.24 41.2232 75.432 41.8952 75.816C42.5832 76.184 43.1272 76.696 43.5272 77.352C43.9272 78.008 44.1272 78.752 44.1272 79.584V82.896C44.1272 83.728 43.9272 84.472 43.5272 85.128C43.1432 85.784 42.6072 86.304 41.9192 86.688C41.2312 87.056 40.4472 87.24 39.5672 87.24ZM39.9992 84.744C40.9752 84.744 41.7592 84.416 42.3512 83.76C42.9592 83.104 43.2632 82.264 43.2632 81.24C43.2632 80.552 43.1272 79.944 42.8552 79.416C42.5832 78.888 42.1992 78.48 41.7032 78.192C41.2232 77.888 40.6552 77.736 39.9992 77.736C39.3592 77.736 38.7912 77.888 38.2952 78.192C37.8152 78.48 37.4312 78.888 37.1432 79.416C36.8712 79.944 36.7352 80.552 36.7352 81.24C36.7352 81.928 36.8712 82.536 37.1432 83.064C37.4312 83.592 37.8152 84.008 38.2952 84.312C38.7912 84.6 39.3592 84.744 39.9992 84.744ZM43.0952 87V83.904L43.5512 81.096L43.0952 78.312V75.48H45.7352V87H43.0952ZM49.6971 87V70.68H52.3371V87H49.6971ZM46.9371 77.88V75.48H55.0971V77.88H46.9371ZM64.1914 87V80.352C64.1914 79.584 63.9434 78.952 63.4474 78.456C62.9674 77.96 62.3434 77.712 61.5754 77.712C61.0634 77.712 60.6074 77.824 60.2074 78.048C59.8074 78.272 59.4954 78.584 59.2714 78.984C59.0474 79.384 58.9354 79.84 58.9354 80.352L57.9034 79.776C57.9034 78.896 58.0954 78.12 58.4794 77.448C58.8634 76.76 59.3914 76.224 60.0634 75.84C60.7514 75.44 61.5194 75.24 62.3674 75.24C63.2314 75.24 63.9994 75.432 64.6714 75.816C65.3434 76.2 65.8714 76.736 66.2554 77.424C66.6394 78.096 66.8314 78.88 66.8314 79.776V87H64.1914ZM56.2954 87V69.72H58.9354V87H56.2954ZM74.1462 87.24C72.9942 87.24 71.9542 86.984 71.0262 86.472C70.1142 85.944 69.3862 85.224 68.8422 84.312C68.3142 83.4 68.0502 82.376 68.0502 81.24C68.0502 80.104 68.3142 79.088 68.8422 78.192C69.3702 77.28 70.0822 76.56 70.9782 76.032C71.8902 75.504 72.8982 75.24 74.0022 75.24C75.0742 75.24 76.0182 75.488 76.8342 75.984C77.6662 76.48 78.3142 77.16 78.7782 78.024C79.2582 78.888 79.4982 79.872 79.4982 80.976C79.4982 81.168 79.4822 81.368 79.4502 81.576C79.4342 81.768 79.4022 81.984 79.3542 82.224H69.8982V80.064H77.9862L77.0022 80.928C76.9702 80.224 76.8342 79.632 76.5942 79.152C76.3542 78.672 76.0102 78.304 75.5622 78.048C75.1302 77.792 74.5942 77.664 73.9542 77.664C73.2822 77.664 72.6982 77.808 72.2022 78.096C71.7062 78.384 71.3222 78.792 71.0502 79.32C70.7782 79.832 70.6422 80.448 70.6422 81.168C70.6422 81.888 70.7862 82.52 71.0742 83.064C71.3622 83.608 71.7702 84.032 72.2982 84.336C72.8262 84.624 73.4342 84.768 74.1222 84.768C74.7142 84.768 75.2582 84.664 75.7542 84.456C76.2662 84.248 76.6982 83.944 77.0502 83.544L78.7302 85.248C78.1702 85.904 77.4902 86.4 76.6902 86.736C75.8902 87.072 75.0422 87.24 74.1462 87.24ZM80.8945 87V75.48H83.5345V87H80.8945ZM83.5345 80.592L82.6225 80.136C82.6225 78.68 82.9425 77.504 83.5825 76.608C84.2385 75.696 85.2225 75.24 86.5345 75.24C87.1105 75.24 87.6305 75.344 88.0945 75.552C88.5585 75.76 88.9905 76.096 89.3905 76.56L87.6625 78.336C87.4545 78.112 87.2225 77.952 86.9665 77.856C86.7105 77.76 86.4145 77.712 86.0785 77.712C85.3425 77.712 84.7345 77.944 84.2545 78.408C83.7745 78.872 83.5345 79.6 83.5345 80.592ZM90.5108 87.24C89.9988 87.24 89.5748 87.072 89.2388 86.736C88.9188 86.384 88.7588 85.96 88.7588 85.464C88.7588 84.952 88.9188 84.528 89.2388 84.192C89.5748 83.856 89.9988 83.688 90.5108 83.688C91.0228 83.688 91.4388 83.856 91.7588 84.192C92.0948 84.528 92.2628 84.952 92.2628 85.464C92.2628 85.96 92.0948 86.384 91.7588 86.736C91.4388 87.072 91.0228 87.24 90.5108 87.24Z" fill="#1B1F24"/>
<defs>
<radialGradient id="paint0_radial_535_2518" cx="0" cy="0" r="1" gradientUnits="userSpaceOnUse" gradientTransform="translate(30.6139 8.22093) rotate(36.8306) scale(34.6437 114.817)">
<stop stop-color="#239C79"/>
<stop offset="1" stop-color="#16A67C"/>
</radialGradient>
<radialGradient id="paint1_radial_535_2518" cx="0" cy="0" r="1" gradientUnits="userSpaceOnUse" gradientTransform="translate(-11.2391 28.6979) rotate(36.9338) scale(116.32 385.914)">
<stop stop-color="#239C79"/>
<stop offset="1" stop-color="#16A67C"/>
</radialGradient>
</defs>
</svg>
