<svg width="150" height="55" viewBox="0 0 150 55" fill="none" xmlns="http://www.w3.org/2000/svg">
<path d="M6.24783 22.979C1.8048 25.6902 4.85938 29.0793 6.94205 30.4349H25.686C28.4629 30.4349 31.2398 29.0793 31.934 25.0124C32.4894 21.7589 29.3886 20.4937 27.7687 20.2677C27.7687 16.8786 25.686 14.8452 21.5207 14.1674C18.1884 13.6251 15.9669 16.2008 15.2727 17.5565C14.5785 16.6527 11.6627 14.7096 8.33047 16.8786C4.9982 19.0477 5.785 22.0752 6.24783 22.979Z" fill="#6DDABA"/>
<path d="M14.5788 15.5229C9.58035 13.3539 6.24809 16.8785 5.55384 18.9119C2.08272 14.8451 5.55382 8.06689 11.1076 8.06689C15.273 8.06689 17.3556 11.23 18.0498 12.8116L14.5788 15.5229Z" fill="#EAF4FF"/>
<rect x="11.1074" y="4" width="1.38844" height="2.71126" fill="#EAF4FF"/>
<rect width="1.37902" height="2.73043" transform="matrix(0.848566 -0.529089 0.547375 0.836888 4.91553 5.93335)" fill="#EAF4FF"/>
<rect width="1.35819" height="2.77188" transform="matrix(0.284009 -0.958822 0.962369 0.271745 1.4126 10.9426)" fill="#EAF4FF"/>
<rect width="1.3559" height="2.77636" transform="matrix(-0.0927827 -0.995686 0.996078 -0.0884836 0.125488 16.4409)" fill="#EAF4FF"/>
<rect width="1.36487" height="2.75872" transform="matrix(-0.537617 -0.843189 0.854532 -0.519399 2.02246 21.0017)" fill="#EAF4FF"/>
<rect width="1.38303" height="2.72232" transform="matrix(0.916372 0.400328 -0.416605 0.909088 16.4072 5.35571)" fill="#EAF4FF"/>
<rect width="1.36875" height="2.75102" transform="matrix(0.639205 0.769037 -0.783784 0.621033 20.2061 8.06689)" fill="#EAF4FF"/>
<path d="M60.96 28V24.8H67.392C68.5227 24.8 69.3973 24.448 70.016 23.744C70.6347 23.04 70.944 22.2293 70.944 21.312C70.944 20.6933 70.8053 20.1173 70.528 19.584C70.2507 19.0507 69.8453 18.624 69.312 18.304C68.7787 17.984 68.1387 17.824 67.392 17.824H60.96V14.624H66.848C67.808 14.624 68.576 14.3787 69.152 13.888C69.728 13.3973 70.016 12.672 70.016 11.712C70.016 10.752 69.728 10.0267 69.152 9.536C68.576 9.04533 67.808 8.8 66.848 8.8H60.96V5.6H66.944C68.4587 5.6 69.7173 5.87733 70.72 6.432C71.7227 6.98667 72.4693 7.70133 72.96 8.576C73.4507 9.45067 73.696 10.3893 73.696 11.392C73.696 12.5653 73.3653 13.6 72.704 14.496C72.064 15.392 71.1147 16.1173 69.856 16.672L70.144 15.52C71.552 16.096 72.6507 16.9067 73.44 17.952C74.2293 18.9973 74.624 20.224 74.624 21.632C74.624 22.784 74.336 23.84 73.76 24.8C73.2053 25.76 72.3733 26.5387 71.264 27.136C70.176 27.712 68.832 28 67.232 28H60.96ZM58.432 28V5.6H62.112V28H58.432ZM84.0343 28.32C82.4983 28.32 81.1116 27.9787 79.8743 27.296C78.6583 26.592 77.6876 25.632 76.9623 24.416C76.2583 23.2 75.9063 21.8347 75.9063 20.32C75.9063 18.8053 76.2583 17.4507 76.9623 16.256C77.6663 15.04 78.6156 14.08 79.8103 13.376C81.0263 12.672 82.3703 12.32 83.8423 12.32C85.2716 12.32 86.5303 12.6507 87.6183 13.312C88.7276 13.9733 89.5916 14.88 90.2103 16.032C90.8503 17.184 91.1703 18.496 91.1703 19.968C91.1703 20.224 91.1489 20.4907 91.1063 20.768C91.0849 21.024 91.0423 21.312 90.9783 21.632H78.3703V18.752H89.1543L87.8423 19.904C87.7996 18.9653 87.6183 18.176 87.2983 17.536C86.9783 16.896 86.5196 16.4053 85.9223 16.064C85.3463 15.7227 84.6316 15.552 83.7783 15.552C82.8823 15.552 82.1036 15.744 81.4423 16.128C80.7809 16.512 80.2689 17.056 79.9063 17.76C79.5436 18.4427 79.3623 19.264 79.3623 20.224C79.3623 21.184 79.5543 22.0267 79.9383 22.752C80.3223 23.4773 80.8663 24.0427 81.5703 24.448C82.2743 24.832 83.0849 25.024 84.0023 25.024C84.7916 25.024 85.5169 24.8853 86.1783 24.608C86.8609 24.3307 87.4369 23.9253 87.9063 23.392L90.1463 25.664C89.3996 26.5387 88.4929 27.2 87.4263 27.648C86.3596 28.096 85.2289 28.32 84.0343 28.32ZM94.9618 28V6.24H98.4818V28H94.9618ZM91.2818 15.84V12.64H102.162V15.84H91.2818Z" fill="#6DDABA"/>
<path d="M106.095 28V6.24H109.615V28H106.095ZM102.415 15.84V12.64H113.295V15.84H102.415ZM121.592 28.32C120.056 28.32 118.669 27.9787 117.432 27.296C116.216 26.592 115.245 25.632 114.52 24.416C113.816 23.2 113.464 21.8347 113.464 20.32C113.464 18.8053 113.816 17.4507 114.52 16.256C115.224 15.04 116.173 14.08 117.368 13.376C118.584 12.672 119.928 12.32 121.4 12.32C122.829 12.32 124.088 12.6507 125.176 13.312C126.285 13.9733 127.149 14.88 127.768 16.032C128.408 17.184 128.728 18.496 128.728 19.968C128.728 20.224 128.706 20.4907 128.664 20.768C128.642 21.024 128.6 21.312 128.536 21.632H115.928V18.752H126.712L125.4 19.904C125.357 18.9653 125.176 18.176 124.856 17.536C124.536 16.896 124.077 16.4053 123.48 16.064C122.904 15.7227 122.189 15.552 121.336 15.552C120.44 15.552 119.661 15.744 119 16.128C118.338 16.512 117.826 17.056 117.464 17.76C117.101 18.4427 116.92 19.264 116.92 20.224C116.92 21.184 117.112 22.0267 117.496 22.752C117.88 23.4773 118.424 24.0427 119.128 24.448C119.832 24.832 120.642 25.024 121.56 25.024C122.349 25.024 123.074 24.8853 123.736 24.608C124.418 24.3307 124.994 23.9253 125.464 23.392L127.704 25.664C126.957 26.5387 126.05 27.2 124.984 27.648C123.917 28.096 122.786 28.32 121.592 28.32ZM130.589 28V12.64H134.109V28H130.589ZM134.109 19.456L132.893 18.848C132.893 16.9067 133.32 15.3387 134.173 14.144C135.048 12.928 136.36 12.32 138.109 12.32C138.877 12.32 139.571 12.4587 140.189 12.736C140.808 13.0133 141.384 13.4613 141.917 14.08L139.613 16.448C139.336 16.1493 139.027 15.936 138.685 15.808C138.344 15.68 137.949 15.616 137.501 15.616C136.52 15.616 135.709 15.9253 135.069 16.544C134.429 17.1627 134.109 18.1333 134.109 19.456Z" fill="#EAF4FF"/>
<path d="M62.144 52L56.624 35.2H59.336L63.488 48.136H62.768L66.824 35.2H68.744L72.8 48.136H72.08L76.232 35.2H78.944L73.424 52H71.504L67.424 39.088H68.144L64.064 52H62.144ZM83.9866 52.24C82.8346 52.24 81.7946 51.984 80.8666 51.472C79.9546 50.944 79.2266 50.224 78.6826 49.312C78.1546 48.4 77.8906 47.376 77.8906 46.24C77.8906 45.104 78.1546 44.088 78.6826 43.192C79.2106 42.28 79.9226 41.56 80.8186 41.032C81.7306 40.504 82.7386 40.24 83.8426 40.24C84.9146 40.24 85.8586 40.488 86.6746 40.984C87.5066 41.48 88.1546 42.16 88.6186 43.024C89.0986 43.888 89.3386 44.872 89.3386 45.976C89.3386 46.168 89.3226 46.368 89.2906 46.576C89.2746 46.768 89.2426 46.984 89.1946 47.224H79.7386V45.064H87.8266L86.8426 45.928C86.8106 45.224 86.6746 44.632 86.4346 44.152C86.1946 43.672 85.8506 43.304 85.4026 43.048C84.9706 42.792 84.4346 42.664 83.7946 42.664C83.1226 42.664 82.5386 42.808 82.0426 43.096C81.5466 43.384 81.1626 43.792 80.8906 44.32C80.6186 44.832 80.4826 45.448 80.4826 46.168C80.4826 46.888 80.6266 47.52 80.9146 48.064C81.2026 48.608 81.6106 49.032 82.1386 49.336C82.6666 49.624 83.2746 49.768 83.9626 49.768C84.5546 49.768 85.0986 49.664 85.5946 49.456C86.1066 49.248 86.5386 48.944 86.8906 48.544L88.5706 50.248C88.0106 50.904 87.3306 51.4 86.5306 51.736C85.7306 52.072 84.8826 52.24 83.9866 52.24ZM95.5589 52.24C94.5189 52.24 93.5749 51.976 92.7269 51.448C91.8949 50.92 91.2309 50.208 90.7349 49.312C90.2549 48.4 90.0149 47.384 90.0149 46.264C90.0149 45.128 90.2549 44.112 90.7349 43.216C91.2309 42.304 91.8949 41.584 92.7269 41.056C93.5749 40.512 94.5189 40.24 95.5589 40.24C96.4389 40.24 97.2149 40.432 97.8869 40.816C98.5749 41.184 99.1189 41.696 99.5189 42.352C99.9189 43.008 100.119 43.752 100.119 44.584V47.896C100.119 48.728 99.9189 49.472 99.5189 50.128C99.1349 50.784 98.5989 51.304 97.9109 51.688C97.2229 52.056 96.4389 52.24 95.5589 52.24ZM95.9909 49.744C96.9669 49.744 97.7509 49.416 98.3429 48.76C98.9509 48.104 99.2549 47.264 99.2549 46.24C99.2549 45.552 99.1189 44.944 98.8469 44.416C98.5749 43.888 98.1909 43.48 97.6949 43.192C97.2149 42.888 96.6469 42.736 95.9909 42.736C95.3509 42.736 94.7829 42.888 94.2869 43.192C93.8069 43.48 93.4229 43.888 93.1349 44.416C92.8629 44.944 92.7269 45.552 92.7269 46.24C92.7269 46.928 92.8629 47.536 93.1349 48.064C93.4229 48.592 93.8069 49.008 94.2869 49.312C94.7829 49.6 95.3509 49.744 95.9909 49.744ZM99.0869 52V48.904L99.5429 46.096L99.0869 43.312V40.48H101.727V52H99.0869ZM105.689 52V35.68H108.329V52H105.689ZM102.929 42.88V40.48H111.089V42.88H102.929ZM120.183 52V45.352C120.183 44.584 119.935 43.952 119.439 43.456C118.959 42.96 118.335 42.712 117.567 42.712C117.055 42.712 116.599 42.824 116.199 43.048C115.799 43.272 115.487 43.584 115.263 43.984C115.039 44.384 114.927 44.84 114.927 45.352L113.895 44.776C113.895 43.896 114.087 43.12 114.471 42.448C114.855 41.76 115.383 41.224 116.055 40.84C116.743 40.44 117.511 40.24 118.359 40.24C119.223 40.24 119.991 40.432 120.663 40.816C121.335 41.2 121.863 41.736 122.247 42.424C122.631 43.096 122.823 43.88 122.823 44.776V52H120.183ZM112.287 52V34.72H114.927V52H112.287ZM130.138 52.24C128.986 52.24 127.946 51.984 127.018 51.472C126.106 50.944 125.378 50.224 124.834 49.312C124.306 48.4 124.042 47.376 124.042 46.24C124.042 45.104 124.306 44.088 124.834 43.192C125.362 42.28 126.074 41.56 126.97 41.032C127.882 40.504 128.89 40.24 129.994 40.24C131.066 40.24 132.01 40.488 132.826 40.984C133.658 41.48 134.306 42.16 134.77 43.024C135.25 43.888 135.49 44.872 135.49 45.976C135.49 46.168 135.474 46.368 135.442 46.576C135.426 46.768 135.394 46.984 135.346 47.224H125.89V45.064H133.978L132.994 45.928C132.962 45.224 132.826 44.632 132.586 44.152C132.346 43.672 132.002 43.304 131.554 43.048C131.122 42.792 130.586 42.664 129.946 42.664C129.274 42.664 128.69 42.808 128.194 43.096C127.698 43.384 127.314 43.792 127.042 44.32C126.77 44.832 126.634 45.448 126.634 46.168C126.634 46.888 126.778 47.52 127.066 48.064C127.354 48.608 127.762 49.032 128.29 49.336C128.818 49.624 129.426 49.768 130.114 49.768C130.706 49.768 131.25 49.664 131.746 49.456C132.258 49.248 132.69 48.944 133.042 48.544L134.722 50.248C134.162 50.904 133.482 51.4 132.682 51.736C131.882 52.072 131.034 52.24 130.138 52.24ZM136.886 52V40.48H139.526V52H136.886ZM139.526 45.592L138.614 45.136C138.614 43.68 138.934 42.504 139.574 41.608C140.23 40.696 141.214 40.24 142.526 40.24C143.102 40.24 143.622 40.344 144.086 40.552C144.55 40.76 144.982 41.096 145.382 41.56L143.654 43.336C143.446 43.112 143.214 42.952 142.958 42.856C142.702 42.76 142.406 42.712 142.07 42.712C141.334 42.712 140.726 42.944 140.246 43.408C139.766 43.872 139.526 44.6 139.526 45.592ZM146.502 52.24C145.99 52.24 145.566 52.072 145.23 51.736C144.91 51.384 144.75 50.96 144.75 50.464C144.75 49.952 144.91 49.528 145.23 49.192C145.566 48.856 145.99 48.688 146.502 48.688C147.014 48.688 147.43 48.856 147.75 49.192C148.086 49.528 148.254 49.952 148.254 50.464C148.254 50.96 148.086 51.384 147.75 51.736C147.43 52.072 147.014 52.24 146.502 52.24Z" fill="#EAF4FF"/>
</svg>
