<svg width="101" height="31" viewBox="0 0 101 31" fill="none" xmlns="http://www.w3.org/2000/svg">
<g opacity="0.2">
<rect width="0.9762" height="1.99229" transform="matrix(0.49703 -0.867734 0.874008 0.485911 0 5.84668)" fill="#EAF4FF"/>
<rect width="0.9762" height="1.99229" transform="matrix(0.8338 -0.552066 0.562666 0.826684 3 2.53906)" fill="#EAF4FF"/>
<rect width="0.9762" height="1.99229" transform="matrix(0.999813 -0.0193322 0.032095 0.999485 7 1.01855)" fill="#EAF4FF"/>
<rect width="0.974555" height="1.99551" transform="matrix(-0.0927827 -0.995686 0.996078 -0.0884836 0.0898438 9.94141)" fill="#EAF4FF"/>
<rect width="0.981004" height="1.98283" transform="matrix(-0.537617 -0.843189 0.854532 -0.519399 1.45312 13.2197)" fill="#EAF4FF"/>
</g>
<path opacity="0.2" d="M4.49175 14.6413C1.29833 16.59 3.49381 19.0259 4.99073 20.0003H18.463C20.4589 20.0003 22.4547 19.0259 22.9537 16.1029C23.3529 13.7644 21.1242 12.855 19.9599 12.6926C19.9599 10.2567 18.463 8.79516 15.4691 8.30798C13.0741 7.91824 11.4774 9.76952 10.9784 10.7439C10.4794 10.0943 8.38372 8.69773 5.98866 10.2567C3.59359 11.8157 4.1591 13.9917 4.49175 14.6413Z" fill="#EAF4FF"/>
<path opacity="0.2" d="M10.4777 9.28183C6.88515 7.72285 4.49008 10.2562 3.99109 11.7177C1.49622 8.79465 3.99107 3.92285 7.98287 3.92285C10.9767 3.92285 12.4736 6.19636 12.9726 7.33311L10.4777 9.28183Z" fill="#EAF4FF"/>
<rect opacity="0.2" width="0.994049" height="1.95667" transform="matrix(0.724816 0.688942 -0.701758 0.712416 12.1895 2.04883)" fill="#EAF4FF"/>
<rect opacity="0.2" width="0.983792" height="1.97729" transform="matrix(0.639205 0.769037 -0.783784 0.621033 14.5234 3.92285)" fill="#EAF4FF"/>
<g opacity="0.2">
<path d="M41.48 12V10.4H44.696C45.2613 10.4 45.6987 10.224 46.008 9.872C46.3173 9.52 46.472 9.11467 46.472 8.656C46.472 8.34667 46.4027 8.05867 46.264 7.792C46.1253 7.52533 45.9227 7.312 45.656 7.152C45.3893 6.992 45.0693 6.912 44.696 6.912H41.48V5.312H44.424C44.904 5.312 45.288 5.18933 45.576 4.944C45.864 4.69867 46.008 4.336 46.008 3.856C46.008 3.376 45.864 3.01333 45.576 2.768C45.288 2.52267 44.904 2.4 44.424 2.4H41.48V0.799999H44.472C45.2293 0.799999 45.8587 0.938666 46.36 1.216C46.8613 1.49333 47.2347 1.85067 47.48 2.288C47.7253 2.72533 47.848 3.19467 47.848 3.696C47.848 4.28267 47.6827 4.8 47.352 5.248C47.032 5.696 46.5573 6.05867 45.928 6.336L46.072 5.76C46.776 6.048 47.3253 6.45333 47.72 6.976C48.1147 7.49867 48.312 8.112 48.312 8.816C48.312 9.392 48.168 9.92 47.88 10.4C47.6027 10.88 47.1867 11.2693 46.632 11.568C46.088 11.856 45.416 12 44.616 12H41.48ZM40.216 12V0.799999H42.056V12H40.216ZM53.0171 12.16C52.2491 12.16 51.5558 11.9893 50.9371 11.648C50.3291 11.296 49.8438 10.816 49.4811 10.208C49.1291 9.6 48.9531 8.91733 48.9531 8.16C48.9531 7.40267 49.1291 6.72533 49.4811 6.128C49.8331 5.52 50.3078 5.04 50.9051 4.688C51.5131 4.336 52.1851 4.16 52.9211 4.16C53.6358 4.16 54.2651 4.32533 54.8091 4.656C55.3638 4.98667 55.7958 5.44 56.1051 6.016C56.4251 6.592 56.5851 7.248 56.5851 7.984C56.5851 8.112 56.5745 8.24533 56.5531 8.384C56.5425 8.512 56.5211 8.656 56.4891 8.816H50.1851V7.376H55.5771L54.9211 7.952C54.8998 7.48267 54.8091 7.088 54.6491 6.768C54.4891 6.448 54.2598 6.20267 53.9611 6.032C53.6731 5.86133 53.3158 5.776 52.8891 5.776C52.4411 5.776 52.0518 5.872 51.7211 6.064C51.3905 6.256 51.1345 6.528 50.9531 6.88C50.7718 7.22133 50.6811 7.632 50.6811 8.112C50.6811 8.592 50.7771 9.01333 50.9691 9.376C51.1611 9.73867 51.4331 10.0213 51.7851 10.224C52.1371 10.416 52.5425 10.512 53.0011 10.512C53.3958 10.512 53.7585 10.4427 54.0891 10.304C54.4305 10.1653 54.7185 9.96267 54.9531 9.696L56.0731 10.832C55.6998 11.2693 55.2465 11.6 54.7131 11.824C54.1798 12.048 53.6145 12.16 53.0171 12.16ZM58.684 12V1.12H60.444V12H58.684ZM56.844 5.92V4.32H66.924V5.92H56.844ZM63.324 12V1.12H65.084V12H63.324ZM71.0727 12.16C70.3047 12.16 69.6114 11.9893 68.9927 11.648C68.3847 11.296 67.8994 10.816 67.5367 10.208C67.1847 9.6 67.0087 8.91733 67.0087 8.16C67.0087 7.40267 67.1847 6.72533 67.5367 6.128C67.8887 5.52 68.3634 5.04 68.9607 4.688C69.5687 4.336 70.2407 4.16 70.9767 4.16C71.6914 4.16 72.3207 4.32533 72.8647 4.656C73.4194 4.98667 73.8514 5.44 74.1607 6.016C74.4807 6.592 74.6407 7.248 74.6407 7.984C74.6407 8.112 74.6301 8.24533 74.6087 8.384C74.5981 8.512 74.5767 8.656 74.5448 8.816H68.2407V7.376H73.6328L72.9767 7.952C72.9554 7.48267 72.8647 7.088 72.7047 6.768C72.5447 6.448 72.3154 6.20267 72.0167 6.032C71.7287 5.86133 71.3714 5.776 70.9447 5.776C70.4967 5.776 70.1074 5.872 69.7767 6.064C69.4461 6.256 69.1901 6.528 69.0087 6.88C68.8274 7.22133 68.7367 7.632 68.7367 8.112C68.7367 8.592 68.8327 9.01333 69.0247 9.376C69.2167 9.73867 69.4887 10.0213 69.8407 10.224C70.1927 10.416 70.5981 10.512 71.0567 10.512C71.4514 10.512 71.8141 10.4427 72.1447 10.304C72.4861 10.1653 72.7741 9.96267 73.0087 9.696L74.1287 10.832C73.7554 11.2693 73.3021 11.6 72.7687 11.824C72.2354 12.048 71.6701 12.16 71.0727 12.16ZM75.5716 12V4.32H77.3316V12H75.5716ZM77.3316 7.728L76.7236 7.424C76.7236 6.45333 76.937 5.66933 77.3636 5.072C77.801 4.464 78.457 4.16 79.3316 4.16C79.7156 4.16 80.0623 4.22933 80.3716 4.368C80.681 4.50667 80.969 4.73067 81.2356 5.04L80.0836 6.224C79.945 6.07467 79.7903 5.968 79.6196 5.904C79.449 5.84 79.2516 5.808 79.0276 5.808C78.537 5.808 78.1316 5.96267 77.8116 6.272C77.4916 6.58133 77.3316 7.06667 77.3316 7.728Z" fill="#EAF4FF"/>
<path d="M43.096 30L39.416 18.8H41.224L43.992 27.424H43.512L46.216 18.8H47.496L50.2 27.424H49.72L52.488 18.8H54.296L50.616 30H49.336L46.616 21.392H47.096L44.376 30H43.096ZM57.6578 30.16C56.8898 30.16 56.1964 29.9893 55.5778 29.648C54.9698 29.296 54.4844 28.816 54.1218 28.208C53.7698 27.6 53.5938 26.9173 53.5938 26.16C53.5938 25.4027 53.7698 24.7253 54.1218 24.128C54.4738 23.52 54.9484 23.04 55.5458 22.688C56.1538 22.336 56.8258 22.16 57.5618 22.16C58.2764 22.16 58.9058 22.3253 59.4498 22.656C60.0044 22.9867 60.4364 23.44 60.7458 24.016C61.0658 24.592 61.2258 25.248 61.2258 25.984C61.2258 26.112 61.2151 26.2453 61.1938 26.384C61.1831 26.512 61.1618 26.656 61.1298 26.816H54.8258V25.376H60.2178L59.5618 25.952C59.5404 25.4827 59.4498 25.088 59.2898 24.768C59.1298 24.448 58.9004 24.2027 58.6018 24.032C58.3138 23.8613 57.9564 23.776 57.5298 23.776C57.0818 23.776 56.6924 23.872 56.3618 24.064C56.0311 24.256 55.7751 24.528 55.5938 24.88C55.4124 25.2213 55.3218 25.632 55.3218 26.112C55.3218 26.592 55.4178 27.0133 55.6098 27.376C55.8018 27.7387 56.0738 28.0213 56.4258 28.224C56.7778 28.416 57.1831 28.512 57.6418 28.512C58.0364 28.512 58.3991 28.4427 58.7298 28.304C59.0711 28.1653 59.3591 27.9627 59.5938 27.696L60.7138 28.832C60.3404 29.2693 59.8871 29.6 59.3538 29.824C58.8204 30.048 58.2551 30.16 57.6578 30.16ZM65.3726 30.16C64.6793 30.16 64.05 29.984 63.4846 29.632C62.93 29.28 62.4873 28.8053 62.1566 28.208C61.8366 27.6 61.6766 26.9227 61.6766 26.176C61.6766 25.4187 61.8366 24.7413 62.1566 24.144C62.4873 23.536 62.93 23.056 63.4846 22.704C64.05 22.3413 64.6793 22.16 65.3726 22.16C65.9593 22.16 66.4766 22.288 66.9246 22.544C67.3833 22.7893 67.746 23.1307 68.0126 23.568C68.2793 24.0053 68.4126 24.5013 68.4126 25.056V27.264C68.4126 27.8187 68.2793 28.3147 68.0126 28.752C67.7566 29.1893 67.3993 29.536 66.9406 29.792C66.482 30.0373 65.9593 30.16 65.3726 30.16ZM65.6606 28.496C66.3113 28.496 66.834 28.2773 67.2286 27.84C67.634 27.4027 67.8366 26.8427 67.8366 26.16C67.8366 25.7013 67.746 25.296 67.5646 24.944C67.3833 24.592 67.1273 24.32 66.7966 24.128C66.4766 23.9253 66.098 23.824 65.6606 23.824C65.234 23.824 64.8553 23.9253 64.5246 24.128C64.2046 24.32 63.9486 24.592 63.7566 24.944C63.5753 25.296 63.4846 25.7013 63.4846 26.16C63.4846 26.6187 63.5753 27.024 63.7566 27.376C63.9486 27.728 64.2046 28.0053 64.5246 28.208C64.8553 28.4 65.234 28.496 65.6606 28.496ZM67.7246 30V27.936L68.0286 26.064L67.7246 24.208V22.32H69.4846V30H67.7246ZM72.1259 30V19.12H73.8859V30H72.1259ZM70.2859 23.92V22.32H75.7259V23.92H70.2859ZM81.7888 30V25.568C81.7888 25.056 81.6234 24.6347 81.2928 24.304C80.9728 23.9733 80.5568 23.808 80.0448 23.808C79.7034 23.808 79.3994 23.8827 79.1328 24.032C78.8661 24.1813 78.6581 24.3893 78.5088 24.656C78.3594 24.9227 78.2848 25.2267 78.2848 25.568L77.5968 25.184C77.5968 24.5973 77.7248 24.08 77.9808 23.632C78.2368 23.1733 78.5888 22.816 79.0368 22.56C79.4954 22.2933 80.0074 22.16 80.5728 22.16C81.1488 22.16 81.6608 22.288 82.1088 22.544C82.5568 22.8 82.9088 23.1573 83.1648 23.616C83.4208 24.064 83.5488 24.5867 83.5488 25.184V30H81.7888ZM76.5248 30V18.48H78.2848V30H76.5248ZM88.4252 30.16C87.6572 30.16 86.9639 29.9893 86.3452 29.648C85.7372 29.296 85.2519 28.816 84.8892 28.208C84.5372 27.6 84.3612 26.9173 84.3612 26.16C84.3612 25.4027 84.5372 24.7253 84.8892 24.128C85.2412 23.52 85.7159 23.04 86.3132 22.688C86.9212 22.336 87.5932 22.16 88.3292 22.16C89.0439 22.16 89.6732 22.3253 90.2172 22.656C90.7719 22.9867 91.2039 23.44 91.5132 24.016C91.8332 24.592 91.9932 25.248 91.9932 25.984C91.9932 26.112 91.9826 26.2453 91.9612 26.384C91.9506 26.512 91.9292 26.656 91.8972 26.816H85.5932V25.376H90.9852L90.3292 25.952C90.3079 25.4827 90.2172 25.088 90.0572 24.768C89.8972 24.448 89.6679 24.2027 89.3692 24.032C89.0812 23.8613 88.7239 23.776 88.2972 23.776C87.8492 23.776 87.4599 23.872 87.1292 24.064C86.7986 24.256 86.5426 24.528 86.3612 24.88C86.1799 25.2213 86.0892 25.632 86.0892 26.112C86.0892 26.592 86.1852 27.0133 86.3772 27.376C86.5692 27.7387 86.8412 28.0213 87.1932 28.224C87.5452 28.416 87.9506 28.512 88.4092 28.512C88.8039 28.512 89.1666 28.4427 89.4972 28.304C89.8386 28.1653 90.1266 27.9627 90.3612 27.696L91.4812 28.832C91.1079 29.2693 90.6546 29.6 90.1212 29.824C89.5879 30.048 89.0226 30.16 88.4252 30.16ZM92.9241 30V22.32H94.6841V30H92.9241ZM94.6841 25.728L94.0761 25.424C94.0761 24.4533 94.2895 23.6693 94.7161 23.072C95.1535 22.464 95.8095 22.16 96.6841 22.16C97.0681 22.16 97.4148 22.2293 97.7241 22.368C98.0335 22.5067 98.3215 22.7307 98.5881 23.04L97.4361 24.224C97.2975 24.0747 97.1428 23.968 96.9721 23.904C96.8015 23.84 96.6041 23.808 96.3801 23.808C95.8895 23.808 95.4841 23.9627 95.1641 24.272C94.8441 24.5813 94.6841 25.0667 94.6841 25.728ZM99.335 30.16C98.9937 30.16 98.711 30.048 98.487 29.824C98.2737 29.5893 98.167 29.3067 98.167 28.976C98.167 28.6347 98.2737 28.352 98.487 28.128C98.711 27.904 98.9937 27.792 99.335 27.792C99.6763 27.792 99.9537 27.904 100.167 28.128C100.391 28.352 100.503 28.6347 100.503 28.976C100.503 29.3067 100.391 29.5893 100.167 29.824C99.9537 30.048 99.6763 30.16 99.335 30.16Z" fill="#EAF4FF"/>
</g>
</svg>
