<svg width="102" height="43" viewBox="0 0 102 43" fill="none" xmlns="http://www.w3.org/2000/svg">
<rect width="0.9762" height="1.99229" transform="matrix(0.284009 -0.958822 0.962369 0.271745 1.01562 15.99)" fill="#1B1F24"/>
<rect width="0.974555" height="1.99551" transform="matrix(-0.0927827 -0.995686 0.996078 -0.0884836 0.0908203 19.9417)" fill="#1B1F24"/>
<rect width="0.981004" height="1.98283" transform="matrix(-0.537617 -0.843189 0.854532 -0.519399 1.4541 23.22)" fill="#1B1F24"/>
<path d="M4.49078 24.6411C1.29735 26.5898 3.49283 29.0257 4.98975 30H18.462C20.4579 30 22.4538 29.0257 22.9527 26.1026C23.3519 23.7641 21.1232 22.8547 19.9589 22.6924C19.9589 20.2565 18.462 18.7949 15.4682 18.3077C13.0731 17.918 11.4764 19.7693 10.9774 20.7436C10.4784 20.0941 8.38275 18.6975 5.98768 20.2565C3.59261 21.8154 4.15812 23.9915 4.49078 24.6411Z" fill="url(#paint0_radial_535_326)"/>
<path d="M10.4787 19.2821C6.88612 17.7231 4.49106 20.2564 3.99206 21.718C1.4972 18.7949 3.99205 13.9231 7.98384 13.9231C10.9777 13.9231 12.4746 16.1966 12.9736 17.3334L10.4787 19.2821Z" fill="#1B1F24"/>
<rect x="7.9834" y="11" width="0.997945" height="1.94872" fill="#1B1F24"/>
<rect width="0.99117" height="1.9625" transform="matrix(0.848566 -0.529089 0.547375 0.836888 3.5332 12.3896)" fill="#1B1F24"/>
<rect width="0.994049" height="1.95667" transform="matrix(0.916372 0.400328 -0.416605 0.909088 11.793 11.9744)" fill="#1B1F24"/>
<rect width="0.983792" height="1.97729" transform="matrix(0.639205 0.769037 -0.783784 0.621033 14.5234 13.9231)" fill="#1B1F24"/>
<path d="M41.48 22V20.4H44.696C45.2613 20.4 45.6987 20.224 46.008 19.872C46.3173 19.52 46.472 19.1147 46.472 18.656C46.472 18.3467 46.4027 18.0587 46.264 17.792C46.1253 17.5253 45.9227 17.312 45.656 17.152C45.3893 16.992 45.0693 16.912 44.696 16.912H41.48V15.312H44.424C44.904 15.312 45.288 15.1893 45.576 14.944C45.864 14.6987 46.008 14.336 46.008 13.856C46.008 13.376 45.864 13.0133 45.576 12.768C45.288 12.5227 44.904 12.4 44.424 12.4H41.48V10.8H44.472C45.2293 10.8 45.8587 10.9387 46.36 11.216C46.8613 11.4933 47.2347 11.8507 47.48 12.288C47.7253 12.7253 47.848 13.1947 47.848 13.696C47.848 14.2827 47.6827 14.8 47.352 15.248C47.032 15.696 46.5573 16.0587 45.928 16.336L46.072 15.76C46.776 16.048 47.3253 16.4533 47.72 16.976C48.1147 17.4987 48.312 18.112 48.312 18.816C48.312 19.392 48.168 19.92 47.88 20.4C47.6027 20.88 47.1867 21.2693 46.632 21.568C46.088 21.856 45.416 22 44.616 22H41.48ZM40.216 22V10.8H42.056V22H40.216ZM53.0171 22.16C52.2491 22.16 51.5558 21.9893 50.9371 21.648C50.3291 21.296 49.8438 20.816 49.4811 20.208C49.1291 19.6 48.9531 18.9173 48.9531 18.16C48.9531 17.4027 49.1291 16.7253 49.4811 16.128C49.8331 15.52 50.3078 15.04 50.9051 14.688C51.5131 14.336 52.1851 14.16 52.9211 14.16C53.6358 14.16 54.2651 14.3253 54.8091 14.656C55.3638 14.9867 55.7958 15.44 56.1051 16.016C56.4251 16.592 56.5851 17.248 56.5851 17.984C56.5851 18.112 56.5745 18.2453 56.5531 18.384C56.5425 18.512 56.5211 18.656 56.4891 18.816H50.1851V17.376H55.5771L54.9211 17.952C54.8998 17.4827 54.8091 17.088 54.6491 16.768C54.4891 16.448 54.2598 16.2027 53.9611 16.032C53.6731 15.8613 53.3158 15.776 52.8891 15.776C52.4411 15.776 52.0518 15.872 51.7211 16.064C51.3905 16.256 51.1345 16.528 50.9531 16.88C50.7718 17.2213 50.6811 17.632 50.6811 18.112C50.6811 18.592 50.7771 19.0133 50.9691 19.376C51.1611 19.7387 51.4331 20.0213 51.7851 20.224C52.1371 20.416 52.5425 20.512 53.0011 20.512C53.3958 20.512 53.7585 20.4427 54.0891 20.304C54.4305 20.1653 54.7185 19.9627 54.9531 19.696L56.0731 20.832C55.6998 21.2693 55.2465 21.6 54.7131 21.824C54.1798 22.048 53.6145 22.16 53.0171 22.16ZM58.4809 22V11.12H60.2409V22H58.4809ZM56.6409 15.92V14.32H62.0809V15.92H56.6409Z" fill="url(#paint1_radial_535_326)"/>
<path d="M64.0477 22V11.12H65.8077V22H64.0477ZM62.2077 15.92V14.32H67.6477V15.92H62.2077ZM71.7959 22.16C71.0279 22.16 70.3345 21.9893 69.7159 21.648C69.1079 21.296 68.6225 20.816 68.2599 20.208C67.9079 19.6 67.7319 18.9173 67.7319 18.16C67.7319 17.4027 67.9079 16.7253 68.2599 16.128C68.6119 15.52 69.0865 15.04 69.6839 14.688C70.2919 14.336 70.9639 14.16 71.6999 14.16C72.4145 14.16 73.0439 14.3253 73.5879 14.656C74.1425 14.9867 74.5745 15.44 74.8839 16.016C75.2039 16.592 75.3639 17.248 75.3639 17.984C75.3639 18.112 75.3532 18.2453 75.3319 18.384C75.3212 18.512 75.2999 18.656 75.2679 18.816H68.9639V17.376H74.3559L73.6999 17.952C73.6785 17.4827 73.5879 17.088 73.4279 16.768C73.2679 16.448 73.0385 16.2027 72.7399 16.032C72.4519 15.8613 72.0945 15.776 71.6679 15.776C71.2199 15.776 70.8305 15.872 70.4999 16.064C70.1692 16.256 69.9132 16.528 69.7319 16.88C69.5505 17.2213 69.4599 17.632 69.4599 18.112C69.4599 18.592 69.5559 19.0133 69.7479 19.376C69.9399 19.7387 70.2119 20.0213 70.5639 20.224C70.9159 20.416 71.3212 20.512 71.7799 20.512C72.1745 20.512 72.5372 20.4427 72.8679 20.304C73.2092 20.1653 73.4972 19.9627 73.7319 19.696L74.8519 20.832C74.4785 21.2693 74.0252 21.6 73.4919 21.824C72.9585 22.048 72.3932 22.16 71.7959 22.16ZM76.2947 22V14.32H78.0547V22H76.2947ZM78.0547 17.728L77.4467 17.424C77.4467 16.4533 77.6601 15.6693 78.0867 15.072C78.5241 14.464 79.1801 14.16 80.0547 14.16C80.4387 14.16 80.7854 14.2293 81.0947 14.368C81.4041 14.5067 81.6921 14.7307 81.9587 15.04L80.8067 16.224C80.6681 16.0747 80.5134 15.968 80.3427 15.904C80.1721 15.84 79.9747 15.808 79.7507 15.808C79.2601 15.808 78.8547 15.9627 78.5347 16.272C78.2147 16.5813 78.0547 17.0667 78.0547 17.728ZM43.096 40L39.416 28.8H41.224L43.992 37.424H43.512L46.216 28.8H47.496L50.2 37.424H49.72L52.488 28.8H54.296L50.616 40H49.336L46.616 31.392H47.096L44.376 40H43.096ZM57.6578 40.16C56.8898 40.16 56.1964 39.9893 55.5778 39.648C54.9698 39.296 54.4844 38.816 54.1218 38.208C53.7698 37.6 53.5938 36.9173 53.5938 36.16C53.5938 35.4027 53.7698 34.7253 54.1218 34.128C54.4738 33.52 54.9484 33.04 55.5458 32.688C56.1538 32.336 56.8258 32.16 57.5618 32.16C58.2764 32.16 58.9058 32.3253 59.4498 32.656C60.0044 32.9867 60.4364 33.44 60.7458 34.016C61.0658 34.592 61.2258 35.248 61.2258 35.984C61.2258 36.112 61.2151 36.2453 61.1938 36.384C61.1831 36.512 61.1618 36.656 61.1298 36.816H54.8258V35.376H60.2178L59.5618 35.952C59.5404 35.4827 59.4498 35.088 59.2898 34.768C59.1298 34.448 58.9004 34.2027 58.6018 34.032C58.3138 33.8613 57.9564 33.776 57.5298 33.776C57.0818 33.776 56.6924 33.872 56.3618 34.064C56.0311 34.256 55.7751 34.528 55.5938 34.88C55.4124 35.2213 55.3218 35.632 55.3218 36.112C55.3218 36.592 55.4178 37.0133 55.6098 37.376C55.8018 37.7387 56.0738 38.0213 56.4258 38.224C56.7778 38.416 57.1831 38.512 57.6418 38.512C58.0364 38.512 58.3991 38.4427 58.7298 38.304C59.0711 38.1653 59.3591 37.9627 59.5938 37.696L60.7138 38.832C60.3404 39.2693 59.8871 39.6 59.3538 39.824C58.8204 40.048 58.2551 40.16 57.6578 40.16ZM65.3726 40.16C64.6793 40.16 64.05 39.984 63.4846 39.632C62.93 39.28 62.4873 38.8053 62.1566 38.208C61.8366 37.6 61.6766 36.9227 61.6766 36.176C61.6766 35.4187 61.8366 34.7413 62.1566 34.144C62.4873 33.536 62.93 33.056 63.4846 32.704C64.05 32.3413 64.6793 32.16 65.3726 32.16C65.9593 32.16 66.4766 32.288 66.9246 32.544C67.3833 32.7893 67.746 33.1307 68.0126 33.568C68.2793 34.0053 68.4126 34.5013 68.4126 35.056V37.264C68.4126 37.8187 68.2793 38.3147 68.0126 38.752C67.7566 39.1893 67.3993 39.536 66.9406 39.792C66.482 40.0373 65.9593 40.16 65.3726 40.16ZM65.6606 38.496C66.3113 38.496 66.834 38.2773 67.2286 37.84C67.634 37.4027 67.8366 36.8427 67.8366 36.16C67.8366 35.7013 67.746 35.296 67.5646 34.944C67.3833 34.592 67.1273 34.32 66.7966 34.128C66.4766 33.9253 66.098 33.824 65.6606 33.824C65.234 33.824 64.8553 33.9253 64.5246 34.128C64.2046 34.32 63.9486 34.592 63.7566 34.944C63.5753 35.296 63.4846 35.7013 63.4846 36.16C63.4846 36.6187 63.5753 37.024 63.7566 37.376C63.9486 37.728 64.2046 38.0053 64.5246 38.208C64.8553 38.4 65.234 38.496 65.6606 38.496ZM67.7246 40V37.936L68.0286 36.064L67.7246 34.208V32.32H69.4846V40H67.7246ZM72.1259 40V29.12H73.8859V40H72.1259ZM70.2859 33.92V32.32H75.7259V33.92H70.2859ZM81.7888 40V35.568C81.7888 35.056 81.6234 34.6347 81.2928 34.304C80.9728 33.9733 80.5568 33.808 80.0448 33.808C79.7034 33.808 79.3994 33.8827 79.1328 34.032C78.8661 34.1813 78.6581 34.3893 78.5088 34.656C78.3594 34.9227 78.2848 35.2267 78.2848 35.568L77.5968 35.184C77.5968 34.5973 77.7248 34.08 77.9808 33.632C78.2368 33.1733 78.5888 32.816 79.0368 32.56C79.4954 32.2933 80.0074 32.16 80.5728 32.16C81.1488 32.16 81.6608 32.288 82.1088 32.544C82.5568 32.8 82.9088 33.1573 83.1648 33.616C83.4208 34.064 83.5488 34.5867 83.5488 35.184V40H81.7888ZM76.5248 40V28.48H78.2848V40H76.5248ZM88.4252 40.16C87.6572 40.16 86.9639 39.9893 86.3452 39.648C85.7372 39.296 85.2519 38.816 84.8892 38.208C84.5372 37.6 84.3612 36.9173 84.3612 36.16C84.3612 35.4027 84.5372 34.7253 84.8892 34.128C85.2412 33.52 85.7159 33.04 86.3132 32.688C86.9212 32.336 87.5932 32.16 88.3292 32.16C89.0439 32.16 89.6732 32.3253 90.2172 32.656C90.7719 32.9867 91.2039 33.44 91.5132 34.016C91.8332 34.592 91.9932 35.248 91.9932 35.984C91.9932 36.112 91.9826 36.2453 91.9612 36.384C91.9506 36.512 91.9292 36.656 91.8972 36.816H85.5932V35.376H90.9852L90.3292 35.952C90.3079 35.4827 90.2172 35.088 90.0572 34.768C89.8972 34.448 89.6679 34.2027 89.3692 34.032C89.0812 33.8613 88.7239 33.776 88.2972 33.776C87.8492 33.776 87.4599 33.872 87.1292 34.064C86.7986 34.256 86.5426 34.528 86.3612 34.88C86.1799 35.2213 86.0892 35.632 86.0892 36.112C86.0892 36.592 86.1852 37.0133 86.3772 37.376C86.5692 37.7387 86.8412 38.0213 87.1932 38.224C87.5452 38.416 87.9506 38.512 88.4092 38.512C88.8039 38.512 89.1666 38.4427 89.4972 38.304C89.8386 38.1653 90.1266 37.9627 90.3612 37.696L91.4812 38.832C91.1079 39.2693 90.6546 39.6 90.1212 39.824C89.5879 40.048 89.0226 40.16 88.4252 40.16ZM92.9241 40V32.32H94.6841V40H92.9241ZM94.6841 35.728L94.0761 35.424C94.0761 34.4533 94.2895 33.6693 94.7161 33.072C95.1535 32.464 95.8095 32.16 96.6841 32.16C97.0681 32.16 97.4148 32.2293 97.7241 32.368C98.0335 32.5067 98.3215 32.7307 98.5881 33.04L97.4361 34.224C97.2975 34.0747 97.1428 33.968 96.9721 33.904C96.8015 33.84 96.6041 33.808 96.3801 33.808C95.8895 33.808 95.4841 33.9627 95.1641 34.272C94.8441 34.5813 94.6841 35.0667 94.6841 35.728ZM99.335 40.16C98.9937 40.16 98.711 40.048 98.487 39.824C98.2737 39.5893 98.167 39.3067 98.167 38.976C98.167 38.6347 98.2737 38.352 98.487 38.128C98.711 37.904 98.9937 37.792 99.335 37.792C99.6763 37.792 99.9537 37.904 100.167 38.128C100.391 38.352 100.503 38.6347 100.503 38.976C100.503 39.3067 100.391 39.5893 100.167 39.824C99.9537 40.048 99.6763 40.16 99.335 40.16Z" fill="#1B1F24"/>
<path d="M37.4462 3.11224C35.6577 5.55396 36.488 9.57951 37.1285 11.311C38.0938 11.2937 40.3486 10.6647 43.7394 8.21989L43.3715 7.79835C41.8717 6.10437 41.7369 5.83235 41.4634 5.15128C41.2447 4.60642 41.5907 4.39618 41.8163 4.36344C41.9249 5.43795 43.1656 5.58443 43.2622 5.59971C44.11 5.73374 44.8383 5.3313 45.0359 4.94576C45.472 3.77137 45.3036 3.22509 44.9455 2.94781C44.1429 2.32653 42.8134 2.10219 42.3915 2.88491C42.1154 2.66573 41.341 2.37183 41.0993 2.29165C39.076 1.68676 37.8919 2.62366 37.4462 3.11224Z" fill="url(#paint2_radial_535_326)"/>
<path d="M36.7915 10.5252L37.3362 12.291C37.607 12.889 38.1138 12.9429 38.3333 12.8951C39.1901 12.8787 41.0519 12.1662 41.7778 11.8563C43.5919 10.9787 44.4353 10.1887 44.6604 9.76307C44.8405 9.42258 44.5371 8.94294 44.4023 8.69778C44.1524 8.24331 43.5855 7.29436 43.3174 7.13429C43.0492 6.97423 42.8264 6.99535 42.7485 7.02592C39.7269 9.37351 37.6132 9.7216 36.9299 9.66038C36.4918 9.6212 36.733 10.3368 36.7915 10.5252Z" fill="#EAF3FF"/>
<defs>
<radialGradient id="paint0_radial_535_326" cx="0" cy="0" r="1" gradientUnits="userSpaceOnUse" gradientTransform="translate(0.441419 16.9088) rotate(36.8306) scale(24.9002 82.5244)">
<stop stop-color="#239C79"/>
<stop offset="1" stop-color="#16A67C"/>
</radialGradient>
<radialGradient id="paint1_radial_535_326" cx="0" cy="0" r="1" gradientUnits="userSpaceOnUse" gradientTransform="translate(31.4674 2.875) rotate(36.285) scale(77.3062 254.732)">
<stop stop-color="#239C79"/>
<stop offset="1" stop-color="#16A67C"/>
</radialGradient>
<radialGradient id="paint2_radial_535_326" cx="0" cy="0" r="1" gradientUnits="userSpaceOnUse" gradientTransform="translate(43.5283 8.35745) rotate(-121.325) scale(9.13128 12.219)">
<stop stop-color="#E50539"/>
<stop offset="1" stop-color="#FF2986"/>
</radialGradient>
</defs>
</svg>
