<svg width="48" height="46" viewBox="0 0 48 46" fill="none" xmlns="http://www.w3.org/2000/svg">
<path d="M27.6262 5.19902L31.0029 12.0319C31.2894 12.6071 31.7126 13.1046 32.236 13.4815C32.7594 13.8584 33.3673 14.1033 34.0073 14.1952L41.5849 15.2768C42.3218 15.383 43.0141 15.6918 43.5833 16.1682C44.1525 16.6446 44.5759 17.2697 44.8056 17.9725C45.0352 18.6754 45.062 19.428 44.8828 20.1452C44.7036 20.8624 44.3256 21.5155 43.7917 22.0305L38.3146 27.3069C37.8368 27.7623 37.4819 28.3294 37.2821 28.9563C37.0824 29.5831 37.0443 30.2496 37.1713 30.8948L38.4475 38.3872C38.5703 39.1124 38.487 39.8573 38.2069 40.5381C37.9268 41.219 37.4611 41.809 36.8619 42.2418C36.2628 42.6747 35.5539 42.9334 34.8148 42.9888C34.0758 43.0442 33.3358 42.8941 32.6779 42.5555L25.898 38.9676C25.3236 38.6694 24.685 38.5137 24.0368 38.5137C23.3886 38.5137 22.75 38.6694 22.1757 38.9676L15.3957 42.5027C14.7378 42.8414 13.9978 42.9914 13.2588 42.936C12.5197 42.8806 11.8109 42.6219 11.2117 42.1891C10.6125 41.7562 10.1468 41.1662 9.86673 40.4854C9.58666 39.8045 9.50334 39.0596 9.62613 38.3344L10.9023 30.8948C11.0155 30.2617 10.9704 29.6108 10.7711 28.9991C10.5718 28.3874 10.2243 27.8335 9.75907 27.386L4.28194 22.1097C3.72398 21.5982 3.32482 20.9393 3.13142 20.2104C2.93803 19.4815 2.95844 18.713 3.19025 17.9953C3.42207 17.2775 3.85565 16.6403 4.43998 16.1588C5.02432 15.6772 5.73511 15.3712 6.48874 15.2768L14.0663 14.1952C14.7063 14.1033 15.3143 13.8584 15.8377 13.4815C16.3611 13.1046 16.7843 12.6071 17.0708 12.0319L20.4474 5.19902C20.7812 4.53812 21.2937 3.98241 21.9276 3.59405C22.5615 3.20569 23.2918 3 24.0368 3C24.7818 3 25.5121 3.20569 26.146 3.59405C26.7799 3.98241 27.2924 4.53812 27.6262 5.19902Z" stroke="url(#paint0_radial_535_4400)" stroke-width="6" stroke-miterlimit="10"/>
<defs>
<radialGradient id="paint0_radial_535_4400" cx="0" cy="0" r="1" gradientUnits="userSpaceOnUse" gradientTransform="translate(14.2778 1.75) rotate(77.4436) scale(56.3477 69.209)">
<stop stop-color="#6DDABA"/>
<stop offset="1" stop-color="#39997D"/>
</radialGradient>
</defs>
</svg>
