<svg width="18" height="16" viewBox="0 0 18 16" fill="none" xmlns="http://www.w3.org/2000/svg">
<path d="M13 1V14.747C12.9995 14.7992 12.9817 14.85 12.9489 14.8926C12.916 14.9351 12.8699 14.9674 12.8165 14.985C12.7632 15.0026 12.7053 15.0048 12.6506 14.9911C12.596 14.9774 12.5471 14.9487 12.5108 14.9086L10.72 12.8755C10.6335 12.7762 10.5239 12.696 10.3993 12.6409C10.2747 12.5858 10.1382 12.5572 10 12.5572C9.86178 12.5572 9.72533 12.5858 9.60071 12.6409C9.47609 12.696 9.36649 12.7762 9.28 12.8755L7.72 14.6534C7.63351 14.7528 7.52391 14.833 7.39929 14.8881C7.27467 14.9432 7.13822 14.9718 7 14.9718C6.86178 14.9718 6.72533 14.9432 6.60071 14.8881C6.47609 14.833 6.36649 14.7528 6.28 14.6534L4.69231 12.8755C4.60581 12.7762 4.49621 12.696 4.3716 12.6409C4.24698 12.5858 4.11053 12.5572 3.97231 12.5572C3.83409 12.5572 3.69764 12.5858 3.57302 12.6409C3.4484 12.696 3.3388 12.7762 3.25231 12.8755L1.48923 14.9086C1.45286 14.9487 1.40405 14.9774 1.34937 14.9911C1.29469 15.0048 1.23679 15.0026 1.18346 14.985C1.13014 14.9674 1.08395 14.9351 1.05115 14.8926C1.01834 14.85 1.00049 14.7992 1 14.747V3.55204C1 2.8752 1.29176 2.22608 1.81109 1.74748C2.33042 1.26888 3.03479 1 3.76923 1H13Z" stroke="url(#paint2_radial_535_5036)" stroke-width="1.5" stroke-linecap="round" stroke-linejoin="round"/>
<path d="M13 1H15.4C15.8243 1 16.2313 1.16911 16.5314 1.47013C16.8314 1.77115 17 2.17943 17 2.60514V4.39486C17 4.82057 16.8314 5.22884 16.5314 5.52987C16.2313 5.83089 15.8243 6 15.4 6H13V1Z" stroke="url(#paint2_radial_535_5036)" stroke-width="1.5" stroke-linecap="round" stroke-linejoin="round"/>
<path d="M5 5H9" stroke="url(#paint2_radial_535_5036)" stroke-width="1.5" stroke-linecap="round" stroke-linejoin="round"/>
<path d="M5 7H9" stroke="url(#paint2_radial_535_5036)" stroke-width="1.5" stroke-linecap="round" stroke-linejoin="round"/>
<path d="M5 10H9" stroke="url(#paint2_radial_535_5036)" stroke-width="1.5" stroke-linecap="round" stroke-linejoin="round"/>
<defs>
<radialGradient id="paint2_radial_535_5036" cx="0" cy="0" r="1" gradientUnits="userSpaceOnUse" gradientTransform="translate(5.54594 0.687498) rotate(70.2462) scale(14.6099 26.899)">
<stop stop-color="#6DDABA"/>
<stop offset="1" stop-color="#39997D"/>
</radialGradient>
</defs>
</svg>
