<svg width="20" height="17" viewBox="0 0 20 17" fill="none" xmlns="http://www.w3.org/2000/svg">
<path d="M1 2H13" stroke="#515670" stroke-width="1.5" stroke-linecap="round" stroke-linejoin="round"/>
<path d="M17.5 4C18.3284 4 19 3.32843 19 2.5C19 1.67157 18.3284 1 17.5 1C16.6716 1 16 1.67157 16 2.5C16 3.32843 16.6716 4 17.5 4Z" stroke="#515670" stroke-width="1.5" stroke-linecap="round" stroke-linejoin="round"/>
<path d="M19 8H7" stroke="#515670" stroke-width="1.5" stroke-linecap="round" stroke-linejoin="round"/>
<path d="M2.5 10C3.32843 10 4 9.32843 4 8.5C4 7.67157 3.32843 7 2.5 7C1.67157 7 1 7.67157 1 8.5C1 9.32843 1.67157 10 2.5 10Z" stroke="#515670" stroke-width="1.5" stroke-linecap="round" stroke-linejoin="round"/>
<path d="M1 15H13" stroke="#515670" stroke-width="1.5" stroke-linecap="round" stroke-linejoin="round"/>
<path d="M17.5 16C18.3284 16 19 15.3284 19 14.5C19 13.6716 18.3284 13 17.5 13C16.6716 13 16 13.6716 16 14.5C16 15.3284 16.6716 16 17.5 16Z" stroke="#515670" stroke-width="1.5" stroke-linecap="round" stroke-linejoin="round"/>
</svg>
