<svg width="26" height="20" viewBox="0 0 26 20" fill="none" xmlns="http://www.w3.org/2000/svg">
<path d="M6.53491 18.58C5.81457 18.9614 5.00438 19.0873 4.21625 18.9402C3.42812 18.7931 2.70094 18.3803 2.13515 17.7588C1.77534 17.3642 1.48986 16.8953 1.29507 16.379C1.10027 15.8628 1 15.3092 1 14.7502C1 14.1912 1.10027 13.6376 1.29507 13.1214C1.48986 12.6051 1.77534 12.1362 2.13515 11.7416L9.41662 3.74219C10.1403 2.94677 11.1212 2.5 12.144 2.5C13.1667 2.5 14.1476 2.94677 14.8713 3.74219C15.594 4.53859 16 5.61815 16 6.74373C16 7.86931 15.594 8.94887 14.8713 9.74527L12.144 12.7468" stroke="#515670" stroke-width="1.5" stroke-linecap="round" stroke-linejoin="round"/>
<path d="M18.9116 1.42C19.704 1.03856 20.5952 0.9127 21.4621 1.0598C22.3291 1.2069 23.129 1.61969 23.7513 2.24118C24.1471 2.63578 24.4612 3.10467 24.6754 3.62096C24.8897 4.13724 25 4.69077 25 5.2498C25 5.80882 24.8897 6.36235 24.6754 6.87864C24.4612 7.39492 24.1471 7.86381 23.7513 8.25842L15.7417 16.2578C14.9457 17.0532 13.8667 17.5 12.7416 17.5C11.6166 17.5 10.5376 17.0532 9.74158 16.2578C8.94656 15.4614 8.5 14.3819 8.5 13.2563C8.5 12.1307 8.94656 11.0511 9.74158 10.2547L12.7416 7.25319" stroke="#515670" stroke-width="1.5" stroke-linecap="round" stroke-linejoin="round"/>
</svg>
